<svg width="24" height="24" viewBox="0 0 24 24" fill="none" xmlns="http://www.w3.org/2000/svg">
<path fill-rule="evenodd" clip-rule="evenodd" d="M12.2422 3.56986C9.80527 1.5009 6.23936 1.0946 3.46127 3.46826C0.431591 6.05688 -0.010004 10.4198 2.3875 13.5049C3.28868 14.6645 5.04132 16.3998 6.71784 17.9822C8.41638 19.5855 10.1107 21.1002 10.9462 21.8401C10.9516 21.8449 10.9571 21.8498 10.9628 21.8548C11.0405 21.9237 11.1418 22.0135 11.2397 22.0872C11.3583 22.1765 11.5328 22.2907 11.7675 22.3607C12.0767 22.4529 12.4088 22.4529 12.718 22.3607C12.9526 22.2907 13.1272 22.1765 13.2457 22.0872C13.3436 22.0135 13.445 21.9237 13.5226 21.8548C13.5283 21.8498 13.5338 21.8449 13.5392 21.8401C14.3747 21.1002 16.0691 19.5855 17.7676 17.9822C19.4441 16.3998 21.1968 14.6645 22.0979 13.5049C24.4853 10.4329 24.1133 6.03566 21.0122 3.45817C18.2048 1.1248 14.6763 1.50021 12.2422 3.56986ZM11.3688 5.93654C9.65791 3.93634 6.95784 3.50592 4.95534 5.2169C2.84967 7.01603 2.56827 9.98925 4.20359 12.0936C4.97892 13.0913 6.60139 14.7096 8.29657 16.3096C9.82778 17.7549 11.3596 19.1309 12.2427 19.9157C13.1258 19.1309 14.6577 17.7549 16.1889 16.3096C17.8841 14.7096 19.5065 13.0913 20.2819 12.0936C21.9273 9.97617 21.6646 6.9911 19.5421 5.22698C17.4836 3.51609 14.8189 3.94647 13.1166 5.93654C12.8981 6.19197 12.5788 6.33902 12.2427 6.33902C11.9066 6.33902 11.5873 6.19197 11.3688 5.93654Z" fill="#151718"/>
</svg>
