<svg width="20" height="20" viewBox="0 0 20 20" fill="none" xmlns="http://www.w3.org/2000/svg">
<g opacity="0.7">
<path d="M4.16634 17.0013C4.16634 17.0013 2.99967 17.0013 2.99967 15.8346C2.99967 14.6679 4.16634 11.1679 9.99967 11.1679C15.833 11.1679 16.9997 14.6679 16.9997 15.8346C16.9997 17.0013 15.833 17.0013 15.833 17.0013H4.16634ZM9.99967 10.0013C10.9279 10.0013 11.8182 9.63253 12.4745 8.97616C13.1309 8.31978 13.4997 7.42954 13.4997 6.50128C13.4997 5.57302 13.1309 4.68279 12.4745 4.02641C11.8182 3.37003 10.9279 3.00128 9.99967 3.00128C9.07141 3.00128 8.18118 3.37003 7.5248 4.02641C6.86842 4.68279 6.49967 5.57302 6.49967 6.50128C6.49967 7.42954 6.86842 8.31978 7.5248 8.97616C8.18118 9.63253 9.07141 10.0013 9.99967 10.0013Z" fill="#151718"/>
</g>
</svg>
