<svg width="32" height="32" viewBox="0 0 32 32" fill="none" xmlns="http://www.w3.org/2000/svg">
<g opacity="0.5">
<path d="M27.427 19.8146L29.3337 17.908L27.427 16.0013L22.667 20.7613L11.2403 9.33464L16.0003 4.57464L14.0937 2.66797L12.187 4.57464L10.2803 2.66797L7.42699 5.5213L5.52033 3.61464L3.61366 5.5213L5.52033 7.42797L2.66699 10.2813L4.57366 12.188L2.66699 14.0946L4.57366 16.0013L9.33366 11.2413L20.7603 22.668L16.0003 27.428L17.907 29.3346L19.8137 27.428L21.7203 29.3346L24.5737 26.4813L26.4803 28.388L28.387 26.4813L26.4803 24.5746L29.3337 21.7213L27.427 19.8146Z" fill="#151718"/>
</g>
</svg>
