<svg width="32" height="32" viewBox="0 0 32 32" fill="none" xmlns="http://www.w3.org/2000/svg">
<g opacity="0.5">
<path d="M24.0003 21.3346H26.0003V25.3346H24.0003V21.3346ZM2.66699 21.3346H22.667V25.3346H2.66699V21.3346ZM21.3737 13.6013H19.3337C17.9737 13.6013 16.867 12.2946 16.867 10.9346C16.867 9.57464 17.9737 8.6013 19.3337 8.6013V6.6013C16.867 6.6013 14.867 8.6013 14.867 11.068C14.867 13.5346 16.867 15.5346 19.3337 15.5346H21.3737C22.7737 15.5346 24.0003 16.5213 24.0003 18.268V20.0013H26.0003V17.8146C26.0003 15.4013 23.867 13.6013 21.3737 13.6013ZM27.3337 21.3346H29.3337V25.3346H27.3337V21.3346ZM25.1337 10.308C25.9603 9.49464 26.467 8.37464 26.467 7.13464C26.467 4.66797 24.467 2.66797 22.0003 2.66797V4.66797C23.3603 4.66797 24.467 5.77464 24.467 7.13464C24.467 8.49464 23.3603 9.6013 22.0003 9.6013V11.6013C24.987 11.6013 27.3337 14.0413 27.3337 17.028V20.0013H29.3337V17.0146C29.3337 14.0546 27.627 11.4946 25.1337 10.308Z" fill="#151718"/>
</g>
</svg>
