<svg width="32" height="32" viewBox="0 0 32 32" fill="none" xmlns="http://www.w3.org/2000/svg">
<g opacity="0.5">
<path d="M28.7994 24.2656L17.3327 15.6656V14.4523C19.5327 13.7989 21.0661 11.5589 20.5727 9.05224C20.2261 7.30557 18.8394 5.85224 17.0927 5.45224C14.0527 4.75891 11.3327 7.06557 11.3327 9.99891H13.9994C13.9994 8.89224 14.8927 7.99891 15.9994 7.99891C17.1061 7.99891 17.9994 8.89224 17.9994 9.99891C17.9994 11.1189 17.0794 12.0256 15.9594 11.9989C15.2394 11.9856 14.6661 12.5989 14.6661 13.3189V15.6656L3.19937 24.2656C2.1727 25.0389 2.71937 26.6656 3.99937 26.6656H15.9994H27.9994C29.2794 26.6656 29.8261 25.0389 28.7994 24.2656ZM7.99937 23.9989L15.9994 17.9989L23.9994 23.9989H7.99937Z" fill="#151718"/>
</g>
</svg>
