<svg width="32" height="32" viewBox="0 0 32 32" fill="none" xmlns="http://www.w3.org/2000/svg">
<g opacity="0.5">
<path d="M11.333 21.3359C12.4376 21.3359 13.333 20.4405 13.333 19.3359C13.333 18.2314 12.4376 17.3359 11.333 17.3359C10.2284 17.3359 9.33301 18.2314 9.33301 19.3359C9.33301 20.4405 10.2284 21.3359 11.333 21.3359Z" fill="#151718"/>
<path d="M20.666 21.3359C21.7705 21.3359 22.666 20.4405 22.666 19.3359C22.666 18.2314 21.7705 17.3359 20.666 17.3359C19.5615 17.3359 18.666 18.2314 18.666 19.3359C18.666 20.4405 19.5615 21.3359 20.666 21.3359Z" fill="#151718"/>
<path d="M15.9997 2.66797C10.6663 2.66797 5.33301 3.33464 5.33301 8.0013V20.668C5.33301 23.2413 7.42634 25.3346 9.99967 25.3346L7.99967 27.3346V28.0013H10.6663L13.333 25.3346H18.6663L21.333 28.0013H23.9997V27.3346L21.9997 25.3346C24.573 25.3346 26.6663 23.2413 26.6663 20.668V8.0013C26.6663 3.33464 21.333 2.66797 15.9997 2.66797ZM15.9997 5.33464C20.6797 5.33464 22.613 5.97464 23.4263 6.66797H8.57301C9.38634 5.97464 11.3197 5.33464 15.9997 5.33464ZM7.99967 9.33464H14.6663V13.3346H7.99967V9.33464ZM23.9997 20.668C23.9997 21.7746 23.1063 22.668 21.9997 22.668H9.99967C8.89301 22.668 7.99967 21.7746 7.99967 20.668V16.0013H23.9997V20.668ZM23.9997 13.3346H17.333V9.33464H23.9997V13.3346Z" fill="#151718"/>
</g>
</svg>
