<svg width="32" height="32" viewBox="0 0 32 32" fill="none" xmlns="http://www.w3.org/2000/svg">
<g opacity="0.5">
<path d="M25.307 22.668H2.66699V25.3346H29.3337V22.668H25.307ZM28.0003 21.3346C27.6403 15.908 23.667 11.468 18.4537 10.388C18.587 10.068 18.667 9.70797 18.667 9.33464C18.667 7.86797 17.467 6.66797 16.0003 6.66797C14.5337 6.66797 13.3337 7.86797 13.3337 9.33464C13.3337 9.70797 13.4137 10.068 13.547 10.388C8.33366 11.468 4.36033 15.908 4.00033 21.3346H28.0003ZM16.0003 12.7746C19.9337 12.7746 23.2937 15.2146 24.667 18.6546H7.33366C8.70699 15.2146 12.067 12.7746 16.0003 12.7746Z" fill="#151718"/>
</g>
</svg>
