<svg width="20" height="20" viewBox="0 0 20 20" fill="none" xmlns="http://www.w3.org/2000/svg">
<g opacity="0.7">
<path d="M17.1094 8.68656C17.0593 9.0031 17.0259 9.31963 16.9592 9.63206C16.6713 10.9887 16.0204 12.1767 15.2318 13.3031C14.1094 14.9022 12.7492 16.2917 11.3014 17.6031C10.8799 17.9854 10.446 18.3595 9.99957 18.75C9.80346 18.5815 9.6157 18.4211 9.42794 18.2608C7.89249 16.9248 6.43214 15.5147 5.19293 13.8992C4.32507 12.7646 3.57821 11.5642 3.16514 10.187C2.15124 6.81611 3.95372 2.3928 8.44325 1.42263C11.6811 0.719667 14.8646 2.20781 16.325 5.08131C16.7672 5.95282 17.0051 6.88188 17.0677 7.85205C17.0718 7.93838 17.0927 8.02471 17.1052 8.11103C17.1094 8.30425 17.1094 8.49335 17.1094 8.68656ZM9.98705 16.4191C10.0413 16.3739 10.0747 16.3492 10.1039 16.3205C10.8799 15.6175 11.631 14.8858 12.3278 14.1088C13.1748 13.1674 13.955 12.1767 14.5559 11.0544C15.1567 9.92804 15.4571 8.75233 15.2485 7.46152C14.7227 4.23447 11.7061 2.39691 8.61015 3.17386C6.29863 3.7535 4.73397 5.77605 4.67138 8.19325C4.64635 9.13464 4.90504 10.002 5.32645 10.8283C6.44883 13.0359 8.18456 14.7419 9.98705 16.4191Z" fill="#151718"/>
<path d="M10 6.71875C10.9012 6.71875 11.6406 7.45607 11.6406 8.35938C11.6406 9.25882 10.8973 10 10 10C9.10266 10 8.35938 9.25496 8.35938 8.35552C8.35938 7.45607 9.09881 6.71875 10 6.71875Z" fill="#151718"/>
</g>
</svg>
