<svg width="32" height="32" viewBox="0 0 32 32" fill="none" xmlns="http://www.w3.org/2000/svg">
<g opacity="0.5">
<path d="M26.0264 3.31962C22.9064 0.199618 17.1997 0.826283 13.2931 4.73295C11.1598 6.86629 9.93313 9.89295 9.90646 12.013C9.87979 14.1196 10.2531 17.1996 8.10646 19.3463L2.45312 24.9996L4.34646 26.8929L9.99979 21.2396C12.1465 19.0929 15.2264 19.4663 17.3331 19.4396C19.4397 19.4129 22.4797 18.1863 24.6131 16.0529C28.5064 12.1463 29.1464 6.43962 26.0264 3.31962ZM13.7597 15.5729C11.7198 13.5329 12.3598 9.42629 15.1731 6.61295C17.9864 3.79962 22.0797 3.15962 24.1331 5.19962C26.1731 7.23962 25.5331 11.3463 22.7197 14.1596C19.9064 16.9729 15.8131 17.6129 13.7597 15.5729Z" fill="#151718"/>
<path d="M24.0003 22.6667C24.707 22.6667 25.387 22.9467 25.8803 23.4533C26.9203 24.4933 26.9203 26.1867 25.8803 27.2267C25.387 27.72 24.707 28 24.0003 28C23.2937 28 22.6137 27.72 22.1203 27.2133C21.0803 26.1733 21.0803 24.48 22.1203 23.44C22.6137 22.9467 23.2937 22.6667 24.0003 22.6667ZM24.0003 20C22.6403 20 21.267 20.52 20.227 21.56C18.147 23.64 18.147 27.0133 20.227 29.1067C21.267 30.1467 22.6403 30.6667 24.0003 30.6667C25.3603 30.6667 26.7337 30.1467 27.7737 29.1067C29.8537 27.0267 29.8537 23.6533 27.7737 21.56C26.7337 20.52 25.3603 20 24.0003 20Z" fill="#151718"/>
</g>
</svg>
