<svg width="32" height="32" viewBox="0 0 32 32" fill="none" xmlns="http://www.w3.org/2000/svg">
<g opacity="0.5">
<path d="M20.6537 12.8413C20.4137 9.1213 18.907 5.49464 16.0803 2.66797C13.227 5.5213 11.6537 9.14797 11.347 12.8413C13.0537 13.748 14.627 14.9213 16.0003 16.348C17.3737 14.9346 18.947 13.7613 20.6537 12.8413ZM16.067 6.9213C16.907 8.29464 17.4937 9.82797 17.8003 11.428C17.1737 11.828 16.587 12.268 16.0137 12.7346C15.4537 12.2813 14.8537 11.8413 14.2403 11.4413C14.5737 9.8413 15.187 8.30797 16.067 6.9213ZM16.0003 20.6013C14.907 18.9346 13.5203 17.4813 11.9203 16.3346C11.747 16.2146 11.5603 16.1213 11.387 15.988C11.5603 16.108 11.747 16.2146 11.907 16.3213C9.30699 14.4413 6.12033 13.3346 2.66699 13.3346C2.66699 20.428 7.14699 26.428 13.3737 28.6546C14.2137 28.9613 15.0937 29.188 16.0003 29.3346C16.907 29.1746 17.7737 28.948 18.627 28.6546C24.8537 26.428 29.3337 20.428 29.3337 13.3346C23.7603 13.3346 18.867 16.228 16.0003 20.6013ZM17.7603 26.1346C17.1737 26.3346 16.587 26.4946 15.987 26.628C15.4003 26.508 14.827 26.348 14.2803 26.148C9.89366 24.5746 6.68033 20.828 5.68033 16.348C7.14699 16.6946 8.54699 17.2946 9.84033 18.1213L9.81366 18.1346C9.98699 18.2546 10.1603 18.3746 10.3337 18.468L10.427 18.5213C11.747 19.4813 12.8803 20.668 13.7737 22.0546L16.0003 25.468L18.227 22.068C19.147 20.668 20.2937 19.468 21.6003 18.5213L21.6937 18.4546C21.8137 18.388 21.9337 18.308 22.0537 18.228L22.0403 18.2013C23.347 17.3346 24.8003 16.6946 26.3203 16.3346C25.3203 20.828 22.1203 24.5746 17.7603 26.1346ZM11.987 16.3746C11.9603 16.3613 11.9337 16.3346 11.9203 16.3213C11.9203 16.3213 11.9337 16.3213 11.9337 16.3346C11.947 16.348 11.9603 16.3613 11.987 16.3746Z" fill="#151718"/>
</g>
</svg>
