<svg width="178" height="52" viewBox="0 0 178 52" fill="none" xmlns="http://www.w3.org/2000/svg">
<path d="M9.34467 10.2816C8.75993 10.0217 7.94779 9.72934 6.95698 9.40449L6.27479 9.17709C5.54369 8.96985 4.84019 8.67536 4.17947 8.29998C4.06004 8.22215 3.96479 8.11243 3.90451 7.98325C3.84422 7.85407 3.82131 7.71059 3.83837 7.56906C3.82566 7.43955 3.85314 7.30927 3.91707 7.19593C3.98101 7.08259 4.0783 6.99169 4.19571 6.93559C4.66159 6.71485 5.17534 6.61434 5.69005 6.64322C7.78537 6.64322 8.12646 7.65027 8.12646 8.52738V9.12836H11.375V8.52738C11.3911 7.8984 11.2784 7.27276 11.0438 6.68896C10.8091 6.10516 10.4575 5.57553 10.0106 5.13264C9.4189 4.62686 8.73141 4.2454 7.98911 4.01099C7.24682 3.77658 6.46493 3.69403 5.69005 3.76825C4.39169 3.69489 3.1043 4.04237 2.01918 4.75906C1.56258 5.08078 1.19197 5.50971 0.939908 6.00816C0.687848 6.50661 0.562054 7.05934 0.573577 7.61779C0.545778 8.38233 0.780818 9.13331 1.23953 9.74559C1.67636 10.2912 2.23186 10.7301 2.86381 11.0288C3.63143 11.384 4.42403 11.6826 5.23525 11.9221L5.93369 12.1333C6.61589 12.3282 7.1519 12.5231 7.55797 12.6693C7.84174 12.7615 8.09463 12.9301 8.28889 13.1566C8.44584 13.3547 8.52653 13.6025 8.51629 13.855C8.52534 14.0055 8.49396 14.1556 8.42542 14.2898C8.35687 14.4241 8.25365 14.5375 8.12646 14.6184C7.54647 14.8609 6.91842 14.9665 6.29103 14.927C4.19571 14.9433 3.25363 14.1636 3.25363 12.4256V11.8084H0.00508073V12.4256C-0.0279262 13.1669 0.100191 13.9066 0.380603 14.5936C0.661015 15.2806 1.08705 15.8986 1.62936 16.4051C2.93806 17.449 4.58767 17.97 6.25855 17.867C7.71293 17.9897 9.16497 17.6052 10.368 16.7787C10.8078 16.4208 11.1595 15.9666 11.3961 15.4513C11.6326 14.9359 11.7477 14.3731 11.7324 13.8063C11.7608 13.0062 11.5015 12.2224 11.0014 11.5973C10.5549 11.04 9.98864 10.5903 9.34467 10.2816Z" fill="#151718"/>
<path d="M24.3694 4.69423C23.3448 4.0649 22.1607 3.74351 20.9585 3.76839C20.078 3.70852 19.196 3.8618 18.3874 4.21524C17.5787 4.56868 16.8672 5.11186 16.313 5.79874V4.01204H13.0645V22.0902H16.313V15.7718C16.5921 16.1347 16.92 16.4572 17.2876 16.7301C18.3561 17.4911 19.6479 17.8741 20.9585 17.8184C22.1403 17.8483 23.3059 17.5381 24.3165 16.9248C25.3272 16.3115 26.1405 15.4208 26.6597 14.3587C27.1949 13.2499 27.4673 12.0327 27.4556 10.8015C27.4692 9.56496 27.1968 8.34199 26.6597 7.2281C26.1441 6.18877 25.3515 5.31194 24.3694 4.69423ZM24.1908 10.8015C24.2359 11.3558 24.1685 11.9134 23.9927 12.441C23.8168 12.9685 23.5361 13.4551 23.1675 13.8714C22.7874 14.2135 22.3436 14.4771 21.8613 14.6471C21.3791 14.8172 20.868 14.8902 20.3575 14.8622C19.2849 14.914 18.2331 14.5538 17.4175 13.8552C17.0248 13.4555 16.7228 12.9758 16.5322 12.4488C16.3416 11.9218 16.2668 11.36 16.313 10.8015C16.2681 10.2456 16.3436 9.68655 16.5342 9.1624C16.7248 8.63826 17.0261 8.16134 17.4175 7.76411C18.2306 7.05965 19.2827 6.69346 20.3575 6.74082C20.8695 6.71129 21.3822 6.78525 21.865 6.95828C22.3478 7.1313 22.7908 7.39984 23.1675 7.74787C23.5423 8.15806 23.8292 8.64052 24.0108 9.16564C24.1923 9.69075 24.2646 10.2474 24.2233 10.8015H24.1908Z" fill="#151718"/>
<path d="M39.4404 4.69418C38.2975 4.08696 37.0231 3.76942 35.7289 3.76942C34.4347 3.76942 33.1603 4.08696 32.0174 4.69418C30.9616 5.29179 30.0906 6.16842 29.4998 7.22806C28.8927 8.31461 28.5792 9.54061 28.5902 10.7852C28.5786 12.0351 28.8921 13.2664 29.4998 14.3586C30.0858 15.4219 30.958 16.2997 32.0174 16.8925C33.1487 17.542 34.4326 17.8784 35.737 17.8671C37.0293 17.8886 38.3051 17.5752 39.4404 16.9575C40.5049 16.3585 41.3821 15.4757 41.9743 14.4074C42.5639 13.3095 42.8656 12.0801 42.8514 10.834C42.8681 9.59071 42.5602 8.36461 41.958 7.27678C41.3744 6.19921 40.5028 5.30506 39.4404 4.69418ZM37.8161 14.3424C37.1837 14.7025 36.4646 14.8823 35.737 14.8622C34.999 14.8841 34.269 14.7044 33.6255 14.3424C33.0559 13.9984 32.5987 13.4961 32.3098 12.8968C31.9961 12.2378 31.8404 11.5149 31.855 10.7852C31.8079 9.71251 32.1808 8.66368 32.8946 7.86152C33.2581 7.4789 33.7008 7.18035 34.1918 6.98676C34.6828 6.79317 35.2102 6.70921 35.737 6.74077C36.4669 6.71865 37.1879 6.90455 37.8161 7.27678C38.3804 7.61513 38.8323 8.1123 39.1155 8.70615C39.4277 9.35405 39.5835 10.0662 39.5703 10.7852C39.5849 11.5149 39.4292 12.2378 39.1155 12.8968C38.8279 13.4919 38.3773 13.9932 37.8161 14.3424Z" fill="#151718"/>
<path d="M48.7321 7.00063H52.5816V4.01196H48.7321V0L45.4835 0.990809V4.01196H42.7872V7.00063H45.4835V15.5281C45.462 15.8522 45.5087 16.1773 45.6206 16.4822C45.7325 16.7872 45.9071 17.0653 46.1332 17.2985C46.3365 17.4842 46.5749 17.6272 46.8343 17.7193C47.0937 17.8113 47.369 17.8505 47.6438 17.8346H47.8387L53.1176 17.5584V14.6185L48.7321 14.8296V7.00063Z" fill="#151718"/>
<path d="M63.4655 51.9769H60.2169V33.9799L69.8327 24.3642H87.8296V27.6127H71.1808L63.4655 35.3281V51.9769Z" fill="#8554EE"/>
<path d="M53.8486 27.6127H35.8516V24.3641H52.5005L60.2158 16.6488V0H63.4643V17.997L53.8486 27.6127Z" fill="#8554EE"/>
<path d="M81.7531 38.8365C80.7273 38.2096 79.5441 37.8885 78.3421 37.9106C77.0502 37.8635 75.7782 38.2399 74.72 38.9826C74.3552 39.2583 74.0229 39.5743 73.7292 39.9247V32.2581H70.4806V51.7494H73.7292V49.9303C74.0225 50.2858 74.3549 50.6072 74.72 50.8886C75.7973 51.6442 77.0922 52.0264 78.4071 51.9768C79.6094 52.0017 80.7934 51.6803 81.8181 51.051C82.8004 50.4312 83.5884 49.5475 84.0921 48.5009C84.6053 47.3853 84.8711 46.1718 84.8711 44.9437C84.8711 43.7157 84.6053 42.5022 84.0921 41.3866C83.5656 40.3349 82.7554 39.4516 81.7531 38.8365ZM81.5582 44.9275C81.6043 45.4856 81.5359 46.0472 81.3572 46.5779C81.1784 47.1086 80.8931 47.5972 80.5187 48.0136C80.1425 48.3624 79.6996 48.6315 79.2167 48.8045C78.7337 48.9776 78.2208 49.0511 77.7087 49.0207C76.6392 49.0655 75.5931 48.6994 74.785 47.9974C74.3935 47.5934 74.0926 47.1107 73.9022 46.5814C73.7117 46.052 73.6362 45.4883 73.6805 44.9275C73.6252 44.3787 73.6895 43.8245 73.8689 43.3029C74.0484 42.7814 74.3387 42.3049 74.72 41.9063C75.5289 41.2073 76.5759 40.8466 77.6437 40.8993C78.157 40.8681 78.6714 40.9397 79.1567 41.1099C79.642 41.28 80.0884 41.5453 80.4699 41.8901C80.8485 42.2957 81.1402 42.7743 81.3273 43.2966C81.5145 43.8188 81.593 44.3738 81.5582 44.9275Z" fill="#151718"/>
<path d="M95.8359 44.2453C95.859 45.1379 95.6872 46.0248 95.3324 46.8441C95.0462 47.5025 94.5786 48.0658 93.9842 48.4684C93.3927 48.8459 92.7043 49.0434 92.0026 49.0369C91.6542 49.0706 91.3025 49.0317 90.9698 48.9226C90.6372 48.8136 90.3307 48.6368 90.0697 48.4034C89.6085 47.7156 89.4017 46.8884 89.485 46.0645V38.1705H86.2364V46.2919C86.1319 47.8232 86.6336 49.3341 87.6333 50.4988C88.1393 50.9892 88.7406 51.3706 89.4 51.6192C90.0594 51.8679 90.7628 51.9785 91.4666 51.9444C92.7497 51.9968 94.0081 51.5812 95.0075 50.7749C95.3263 50.5024 95.61 50.1914 95.8522 49.849V51.7007H99.1007V38.1705H95.8359V44.2453Z" fill="#151718"/>
<path d="M109.724 44.4401C108.943 44.1075 108.146 43.8148 107.336 43.563L106.654 43.3356C105.918 43.1271 105.21 42.8327 104.543 42.4584C104.428 42.3758 104.337 42.2652 104.277 42.1373C104.217 42.0094 104.191 41.8683 104.201 41.7275C104.192 41.5966 104.223 41.4659 104.29 41.3528C104.357 41.2398 104.456 41.1495 104.575 41.0941C105.036 40.8747 105.544 40.7741 106.053 40.8017C108.165 40.8017 108.425 41.7925 108.425 42.6696V43.2868H111.673V42.6696C111.687 42.0433 111.573 41.4208 111.339 40.8399C111.104 40.2591 110.754 39.7321 110.309 39.2911C109.724 38.7894 109.045 38.4089 108.311 38.1719C107.578 37.9349 106.805 37.846 106.037 37.9105C104.718 37.8526 103.417 38.2292 102.334 38.9825C101.619 39.5527 101.147 40.3732 101.015 41.2779C100.882 42.1826 101.098 43.1038 101.619 43.8553C102.059 44.3939 102.614 44.8268 103.243 45.1223C104.018 45.478 104.816 45.7819 105.631 46.0319C105.859 46.1111 106.093 46.1761 106.329 46.2268C107.011 46.4379 107.547 46.6166 107.954 46.7628C108.232 46.8742 108.481 47.0462 108.684 47.2663C108.839 47.4588 108.914 47.7026 108.896 47.9485C108.896 48.4683 108.701 48.6469 108.538 48.7444C107.962 49.0001 107.332 49.1116 106.703 49.0692C104.624 49.0692 103.682 48.2896 103.682 46.5354V45.9669H100.433V46.5679C100.4 47.3116 100.528 48.0537 100.808 48.7434C101.089 49.433 101.515 50.054 102.057 50.5636C103.39 51.6056 105.065 52.1099 106.752 51.9767C108.209 52.103 109.664 51.712 110.861 50.8722C111.274 50.5032 111.598 50.0456 111.809 49.5337C112.02 49.0218 112.112 48.4687 112.079 47.916C112.117 47.1147 111.856 46.3278 111.348 45.707C110.915 45.1622 110.358 44.728 109.724 44.4401Z" fill="#151718"/>
<path d="M132.14 37.9107C130.856 37.8658 129.598 38.2869 128.599 39.0964C128.285 39.3678 128.002 39.6728 127.755 40.006V38.1706H124.506V51.7333H127.755V45.6585C127.736 44.7663 127.908 43.8804 128.258 43.0597C128.541 42.3942 129.016 41.8285 129.623 41.4354C130.206 41.0711 130.884 40.8848 131.572 40.8994C131.918 40.866 132.267 40.9051 132.597 41.0142C132.927 41.1232 133.23 41.2999 133.488 41.5328C133.967 42.2081 134.191 43.0308 134.122 43.8555V51.7495H137.37V43.6282C137.47 42.1074 136.968 40.6084 135.974 39.4538C135.478 38.9425 134.881 38.541 134.221 38.2752C133.56 38.0094 132.852 37.8852 132.14 37.9107Z" fill="#151718"/>
<path d="M162.432 44.4402C161.847 44.1803 161.035 43.8879 160.044 43.563L159.346 43.3356C158.616 43.1251 157.913 42.8308 157.251 42.4585C157.136 42.3759 157.045 42.2653 156.985 42.1374C156.925 42.0095 156.899 41.8684 156.91 41.7276C156.897 41.5981 156.924 41.4678 156.988 41.3545C157.052 41.2411 157.149 41.1502 157.267 41.0941C157.735 40.8797 158.247 40.7795 158.761 40.8018C160.856 40.8018 161.133 41.7926 161.133 42.6697V43.2869H164.381V42.6697C164.394 42.0449 164.282 41.4239 164.05 40.8435C163.819 40.2631 163.473 39.7352 163.033 39.2912C162.447 38.791 161.768 38.4115 161.035 38.1746C160.302 37.9376 159.529 37.8479 158.761 37.9106C157.462 37.8466 156.175 38.1994 155.09 38.9176C154.637 39.2411 154.269 39.6709 154.02 40.1692C153.771 40.6675 153.648 41.2193 153.661 41.7763C153.642 42.5221 153.871 43.2531 154.311 43.8554C154.752 44.3924 155.307 44.825 155.935 45.1224C156.703 45.4812 157.495 45.7851 158.306 46.0319L159.005 46.2269C159.698 46.4326 160.239 46.6113 160.629 46.7629C160.902 46.8744 161.147 47.0466 161.344 47.2664C161.426 47.3587 161.489 47.4668 161.528 47.5841C161.567 47.7014 161.582 47.8254 161.571 47.9486C161.571 48.4684 161.376 48.647 161.198 48.7445C160.628 49.0021 160.002 49.1137 159.378 49.0693C157.283 49.0693 156.357 48.2897 156.357 46.5355V45.967H153.109V46.568C153.077 47.3116 153.205 48.0534 153.485 48.7429C153.766 49.4324 154.191 50.0534 154.733 50.5637C156.061 51.6032 157.73 52.1074 159.411 51.9768C160.873 52.1 162.332 51.7094 163.537 50.8723C163.971 50.5144 164.319 50.0622 164.552 49.5499C164.786 49.0377 164.899 48.4789 164.885 47.9161C164.915 47.1185 164.662 46.3359 164.17 45.7071C163.701 45.1514 163.105 44.7169 162.432 44.4402Z" fill="#151718"/>
<path d="M176.531 45.7071C176.096 45.1636 175.54 44.7296 174.907 44.4402C174.126 44.1076 173.33 43.8149 172.519 43.563L171.837 43.3356C171.106 43.1284 170.403 42.8339 169.742 42.4585C169.624 42.3794 169.53 42.2694 169.469 42.1406C169.409 42.0118 169.386 41.869 169.401 41.7276C169.388 41.5981 169.415 41.4678 169.479 41.3545C169.543 41.2411 169.641 41.1502 169.758 41.0941C170.224 40.8734 170.738 40.7729 171.252 40.8018C173.348 40.8018 173.624 41.7926 173.624 42.6697V43.2869H176.872V42.6697C176.886 42.0449 176.773 41.4239 176.541 40.8435C176.31 40.2631 175.964 39.7352 175.524 39.2912C174.938 38.791 174.259 38.4115 173.526 38.1746C172.793 37.9376 172.02 37.8479 171.252 37.9106C169.952 37.842 168.665 38.1952 167.582 38.9176C166.83 39.4812 166.327 40.316 166.182 41.2443C166.036 42.1727 166.259 43.1212 166.802 43.8879C167.24 44.4285 167.795 44.8618 168.426 45.1548C169.194 45.5137 169.987 45.8176 170.798 46.0644L171.496 46.2593C172.194 46.4705 172.73 46.6492 173.12 46.7954C173.401 46.9026 173.651 47.0752 173.851 47.2989C174.01 47.4898 174.091 47.7332 174.079 47.9811C174.101 48.1358 174.078 48.2937 174.012 48.4353C173.945 48.5768 173.839 48.6957 173.705 48.777C173.13 49.0359 172.499 49.1476 171.87 49.1018C169.791 49.1018 168.865 48.3222 168.865 46.568V45.967H165.616V46.568C165.586 47.3113 165.716 48.0525 165.996 48.7417C166.276 49.4308 166.7 50.0521 167.24 50.5637C168.573 51.6057 170.248 52.11 171.935 51.9768C173.392 52.1031 174.847 51.7121 176.044 50.8723C176.483 50.5177 176.835 50.0665 177.072 49.5537C177.309 49.041 177.424 48.4806 177.408 47.9161C177.393 47.0978 177.082 46.3129 176.531 45.7071Z" fill="#151718"/>
<path d="M149.082 46.5842V46.6655C148.952 47.3701 148.564 48.001 147.994 48.4359C147.357 48.8628 146.6 49.0735 145.834 49.0369C145.34 49.0916 144.84 49.0321 144.372 48.8632C143.905 48.6942 143.482 48.4202 143.138 48.0623C142.64 47.453 142.325 46.7153 142.228 45.9345H151.974V44.5377C152.023 43.6493 151.894 42.76 151.592 41.9228C151.291 41.0856 150.824 40.3177 150.219 39.6648C149.61 39.069 148.884 38.6046 148.088 38.3001C147.292 37.9955 146.442 37.8575 145.59 37.8944C144.401 37.8734 143.226 38.1587 142.179 38.7227C141.127 39.262 140.261 40.1052 139.694 41.1429C139.121 42.2683 138.836 43.5186 138.866 44.7813C138.876 46.024 139.159 47.2494 139.694 48.3709C140.164 49.4606 140.958 50.3793 141.968 51.0023C143.132 51.6868 144.468 52.0248 145.818 51.9768C146.633 52.0175 147.448 51.8947 148.215 51.6157C148.982 51.3368 149.686 50.9073 150.284 50.3526C151.279 49.4144 151.979 48.2064 152.298 46.8766V46.5193L149.082 46.5842ZM142.585 42.3124C142.861 41.8579 143.261 41.4916 143.739 41.2566C144.296 40.9724 144.916 40.8328 145.542 40.8505C145.966 40.8171 146.393 40.872 146.796 41.0118C147.199 41.1515 147.568 41.3732 147.88 41.6627C148.284 42.082 148.551 42.6147 148.644 43.1895H142.212C142.274 42.8797 142.389 42.5829 142.553 42.3124H142.585Z" fill="#151718"/>
<path fill-rule="evenodd" clip-rule="evenodd" d="M119.863 33.382H116.334V36.9106H119.863V33.382ZM119.568 39.1506C119.666 39.4301 119.705 39.7269 119.682 40.0223V48.7284H123.142V51.6846H113.055V48.7284H116.531V40.9319L113.981 41.1755V38.1868L117.392 37.8782C117.699 37.8268 118.015 37.8469 118.313 37.9371C118.612 38.0272 118.886 38.1849 119.114 38.398C119.315 38.6148 119.47 38.871 119.568 39.1506Z" fill="#151718"/>
</svg>
