<svg width="20" height="20" viewBox="0 0 20 20" fill="none" xmlns="http://www.w3.org/2000/svg">
<path d="M2.57715 7.8418H17.4305" stroke="#151718" stroke-width="2" stroke-linecap="round" stroke-linejoin="round"/>
<path d="M13.702 11.1003H13.7084" stroke="#151718" stroke-width="2" stroke-linecap="round" stroke-linejoin="round"/>
<path d="M10.0041 11.097H10.0105" stroke="#151718" stroke-width="2" stroke-linecap="round" stroke-linejoin="round"/>
<path d="M6.29803 11.1003H6.30444" stroke="#151718" stroke-width="2" stroke-linecap="round" stroke-linejoin="round"/>
<path d="M13.702 14.3294H13.7084" stroke="#151718" stroke-width="2" stroke-linecap="round" stroke-linejoin="round"/>
<path d="M10.0041 14.3294H10.0105" stroke="#151718" stroke-width="2" stroke-linecap="round" stroke-linejoin="round"/>
<path d="M6.29803 14.3294H6.30444" stroke="#151718" stroke-width="2" stroke-linecap="round" stroke-linejoin="round"/>
<path d="M13.3701 1.66992V4.41242" stroke="#151718" stroke-width="2" stroke-linecap="square" stroke-linejoin="round"/>
<path d="M6.63898 1.66992V4.41242" stroke="#151718" stroke-width="2" stroke-linecap="square" stroke-linejoin="round"/>
<path fill-rule="evenodd" clip-rule="evenodd" d="M13.5319 2.98175C11.0769 2.98175 6.4758 2.98175 6.4758 2.98175C4.02856 2.98175 2.5 2.98175 2.5 2.98175V14.3923C2.5 16.9376 2.5 18.3324 2.5 18.3324H17.5C17.5 18.3324 17.5 16.9613 17.5 14.4554V2.98175C17.5 2.98175 15.9868 2.98175 13.5319 2.98175Z" stroke="#151718" stroke-width="2" stroke-linecap="round"/>
</svg>
