<svg width="32" height="32" viewBox="0 0 32 32" fill="none" xmlns="http://www.w3.org/2000/svg">
<path d="M25.3333 4H6.66667C5.2 4 4 5.2 4 6.66667V25.3333C4 26.8 5.2 28 6.66667 28H25.3333C26.8 28 28 26.8 28 25.3333V6.66667C28 5.2 26.8 4 25.3333 4ZM17.3333 6.66667H25.3333V14.6667H21.3333L22.6667 9.33333L17.3333 10.6667V6.66667ZM6.66667 6.66667H14.6667V10.6667L9.33333 9.33333L10.6667 14.6667H6.66667V6.66667ZM14.6667 25.3333H6.66667V17.3333H10.6667L9.33333 22.6667L14.6667 21.3333V25.3333ZM25.3333 25.3333H17.3333V21.3333L22.6667 22.6667L21.3333 17.3333H25.3333V25.3333ZM19.5067 19.5067L16 18.2933L12.4933 19.5067L13.7067 16L12.4933 12.4933L16 13.7067L19.5067 12.4933L18.2933 16L19.5067 19.5067Z" fill="#151718"/>
</svg>
