<svg width="32" height="32" viewBox="0 0 32 32" fill="none" xmlns="http://www.w3.org/2000/svg">
<g opacity="0.5">
<path d="M16.0003 2.66797C8.64033 2.66797 2.66699 8.6413 2.66699 16.0013C2.66699 23.3613 8.64033 29.3346 16.0003 29.3346C23.3603 29.3346 29.3337 23.3613 29.3337 16.0013C29.3337 8.6413 23.3603 2.66797 16.0003 2.66797ZM6.97366 10.3346C8.13366 11.4946 8.93366 12.988 9.21366 14.668H5.42699C5.62699 13.0946 6.17366 11.628 6.97366 10.3346ZM5.42699 17.3346H9.21366C8.93366 19.0146 8.13366 20.508 6.97366 21.668C6.17366 20.3746 5.62699 18.908 5.42699 17.3346ZM14.667 26.5746C12.3603 26.2813 10.2803 25.2413 8.68033 23.7213C10.4137 22.068 11.6003 19.8413 11.907 17.3346H14.667V26.5746ZM14.667 14.668H11.907C11.587 12.1613 10.4137 9.9213 8.66699 8.26797C10.2803 6.74797 12.3603 5.7213 14.667 5.42797V14.668ZM26.5737 14.668H22.787C23.067 12.988 23.867 11.4946 25.027 10.3346C25.827 11.628 26.3737 13.0946 26.5737 14.668ZM17.3337 5.42797C19.6403 5.7213 21.7203 6.74797 23.3337 8.26797C21.587 9.9213 20.4137 12.1613 20.0937 14.668H17.3337V5.42797ZM17.3337 26.5746V17.3346H20.0937C20.4137 19.8413 21.587 22.068 23.3203 23.7213C21.7203 25.2413 19.6403 26.2813 17.3337 26.5746ZM25.027 21.668C23.867 20.5213 23.0803 19.0146 22.787 17.3346H26.5737C26.3737 18.908 25.827 20.3746 25.027 21.668Z" fill="#151718"/>
</g>
</svg>
