<svg width="220" height="228" viewBox="0 0 220 228" fill="none" xmlns="http://www.w3.org/2000/svg">
<g filter="url(#filter0_d_65_258)">
<mask id="path-1-inside-1_65_258" fill="white">
<path fill-rule="evenodd" clip-rule="evenodd" d="M220 0H0V219.545H104.617L110.5 228L116.383 219.545H187.5L220 186.613V0Z"/>
</mask>
<path fill-rule="evenodd" clip-rule="evenodd" d="M220 0H0V219.545H104.617L110.5 228L116.383 219.545H187.5L220 186.613V0Z" fill="white"/>
<path d="M0 0V-1H-1V0H0ZM220 0H221V-1H220V0ZM0 219.545H-1V220.545H0V219.545ZM104.617 219.545L105.438 218.974L105.14 218.545H104.617V219.545ZM110.5 228L109.679 228.571L110.5 229.751L111.321 228.571L110.5 228ZM116.383 219.545V218.545H115.86L115.562 218.974L116.383 219.545ZM187.5 219.545V220.545H187.918L188.212 220.247L187.5 219.545ZM220 186.613L220.712 187.316L221 187.023V186.613H220ZM0 1H220V-1H0V1ZM1 219.545V0H-1V219.545H1ZM104.617 218.545H0V220.545H104.617V218.545ZM103.796 220.116L109.679 228.571L111.321 227.429L105.438 218.974L103.796 220.116ZM111.321 228.571L117.204 220.116L115.562 218.974L109.679 227.429L111.321 228.571ZM187.5 218.545H116.383V220.545H187.5V218.545ZM219.288 185.911L186.788 218.842L188.212 220.247L220.712 187.316L219.288 185.911ZM219 0V186.613H221V0H219Z" fill="#151718" fill-opacity="0.15" mask="url(#path-1-inside-1_65_258)"/>
</g>
<defs>
<filter id="filter0_d_65_258" x="-80" y="-76" width="380" height="388" filterUnits="userSpaceOnUse" color-interpolation-filters="sRGB">
<feFlood flood-opacity="0" result="BackgroundImageFix"/>
<feColorMatrix in="SourceAlpha" type="matrix" values="0 0 0 0 0 0 0 0 0 0 0 0 0 0 0 0 0 0 127 0" result="hardAlpha"/>
<feOffset dy="4"/>
<feGaussianBlur stdDeviation="40"/>
<feComposite in2="hardAlpha" operator="out"/>
<feColorMatrix type="matrix" values="0 0 0 0 0.0823529 0 0 0 0 0.0901961 0 0 0 0 0.0941176 0 0 0 0.2 0"/>
<feBlend mode="normal" in2="BackgroundImageFix" result="effect1_dropShadow_65_258"/>
<feBlend mode="normal" in="SourceGraphic" in2="effect1_dropShadow_65_258" result="shape"/>
</filter>
</defs>
</svg>
