<svg width="32" height="32" viewBox="0 0 32 32" fill="none" xmlns="http://www.w3.org/2000/svg">
<g opacity="0.5">
<path d="M29.3337 14.668H23.7737L28.0937 10.348L26.2137 8.45464L20.0003 14.668H17.3337V12.0013L23.547 5.78797L21.6537 3.90797L17.3337 8.22797V2.66797H14.667V8.22797L10.347 3.90797L8.45366 5.78797L14.667 12.0013V14.668H12.0003L5.78699 8.45464L3.90699 10.348L8.22699 14.668H2.66699V17.3346H8.22699L3.90699 21.6546L5.78699 23.548L12.0003 17.3346H14.667V20.0013L8.45366 26.2146L10.347 28.0946L14.667 23.7746V29.3346H17.3337V23.7746L21.6537 28.0946L23.547 26.2146L17.3337 20.0013V17.3346H20.0003L26.2137 23.548L28.0937 21.6546L23.7737 17.3346H29.3337V14.668Z" fill="#151718"/>
</g>
</svg>
