<svg width="24" height="24" viewBox="0 0 24 24" fill="none" xmlns="http://www.w3.org/2000/svg">
<path fill-rule="evenodd" clip-rule="evenodd" d="M2.25 2.25V2.53124V6.375V10.2188V10.5L2.53124 10.5H6.375H10.2188H10.5L10.5 10.2188V6.375V2.53124L10.5 2.25L10.2188 2.25H6.375H2.53124L2.25 2.25ZM9.58333 6.375V9.58333H6.375H3.16667V6.375V3.16667H6.375H9.58333V6.375Z" fill="#151718" stroke="#151718" stroke-width="0.5"/>
<path fill-rule="evenodd" clip-rule="evenodd" d="M2.25 13.9961V14.2773V18.1211V21.9648V22.2461L2.53124 22.2461H6.375H10.2188H10.5L10.5 21.9648V18.1211V14.2773L10.5 13.9961L10.2188 13.9961H6.375H2.53124L2.25 13.9961ZM9.58333 18.1211V21.3294H6.375H3.16667V18.1211V14.9128H6.375H9.58333V18.1211Z" fill="#151718" stroke="#151718" stroke-width="0.5"/>
<path fill-rule="evenodd" clip-rule="evenodd" d="M13.9951 2.25V2.53124V6.375V10.2188V10.5L14.2764 10.5H18.1201H21.9639H22.2451L22.2451 10.2188V6.375V2.53124L22.2451 2.25L21.9639 2.25H18.1201H14.2764L13.9951 2.25ZM21.3285 6.375V9.58333H18.1201H14.9118V6.375V3.16667H18.1201H21.3285V6.375Z" fill="#151718" stroke="#151718" stroke-width="0.5"/>
<path fill-rule="evenodd" clip-rule="evenodd" d="M13.9951 13.9961V14.2773V18.1211V21.9648V22.2461L14.2764 22.2461H18.1201H21.9639H22.2451L22.2451 21.9648V18.1211V14.2773L22.2451 13.9961L21.9639 13.9961H18.1201H14.2764L13.9951 13.9961ZM21.3285 18.1211V21.3294H18.1201H14.9118V18.1211V14.9128H18.1201H21.3285V18.1211Z" fill="#151718" stroke="#151718" stroke-width="0.5"/>
</svg>
