<svg width="24" height="24" viewBox="0 0 24 24" fill="none" xmlns="http://www.w3.org/2000/svg">
<path fill-rule="evenodd" clip-rule="evenodd" d="M2.09277 9.40234C2.09277 8.85006 2.54049 8.40234 3.09277 8.40234H20.9168C21.4691 8.40234 21.9168 8.85006 21.9168 9.40234C21.9168 9.95463 21.4691 10.4023 20.9168 10.4023H3.09277C2.54049 10.4023 2.09277 9.95463 2.09277 9.40234Z" fill="#151718"/>
<path fill-rule="evenodd" clip-rule="evenodd" d="M15.4424 13.3086C15.4424 12.7563 15.8901 12.3086 16.4424 12.3086H16.4514C17.0037 12.3086 17.4514 12.7563 17.4514 13.3086C17.4514 13.8609 17.0037 14.3086 16.4514 14.3086H16.4424C15.8901 14.3086 15.4424 13.8609 15.4424 13.3086Z" fill="#151718"/>
<path fill-rule="evenodd" clip-rule="evenodd" d="M11.0049 13.3086C11.0049 12.7563 11.4526 12.3086 12.0049 12.3086H12.0139C12.5662 12.3086 13.0139 12.7563 13.0139 13.3086C13.0139 13.8609 12.5662 14.3086 12.0139 14.3086H12.0049C11.4526 14.3086 11.0049 13.8609 11.0049 13.3086Z" fill="#151718"/>
<path fill-rule="evenodd" clip-rule="evenodd" d="M6.55762 13.3086C6.55762 12.7563 7.00533 12.3086 7.55762 12.3086H7.56662C8.1189 12.3086 8.56662 12.7563 8.56662 13.3086C8.56662 13.8609 8.1189 14.3086 7.56662 14.3086H7.55762C7.00533 14.3086 6.55762 13.8609 6.55762 13.3086Z" fill="#151718"/>
<path fill-rule="evenodd" clip-rule="evenodd" d="M15.4424 17.1953C15.4424 16.643 15.8901 16.1953 16.4424 16.1953H16.4514C17.0037 16.1953 17.4514 16.643 17.4514 17.1953C17.4514 17.7476 17.0037 18.1953 16.4514 18.1953H16.4424C15.8901 18.1953 15.4424 17.7476 15.4424 17.1953Z" fill="#151718"/>
<path fill-rule="evenodd" clip-rule="evenodd" d="M11.0049 17.1953C11.0049 16.643 11.4526 16.1953 12.0049 16.1953H12.0139C12.5662 16.1953 13.0139 16.643 13.0139 17.1953C13.0139 17.7476 12.5662 18.1953 12.0139 18.1953H12.0049C11.4526 18.1953 11.0049 17.7476 11.0049 17.1953Z" fill="#151718"/>
<path fill-rule="evenodd" clip-rule="evenodd" d="M6.55762 17.1953C6.55762 16.643 7.00533 16.1953 7.55762 16.1953H7.56662C8.1189 16.1953 8.56662 16.643 8.56662 17.1953C8.56662 17.7476 8.1189 18.1953 7.56662 18.1953H7.55762C7.00533 18.1953 6.55762 17.7476 6.55762 17.1953Z" fill="#151718"/>
<path fill-rule="evenodd" clip-rule="evenodd" d="M16.7939 1.25V6.041H15.2939V1.25H16.7939Z" fill="#151718"/>
<path fill-rule="evenodd" clip-rule="evenodd" d="M8.71606 1.25V6.041H7.21606V1.25H8.71606Z" fill="#151718"/>
<path fill-rule="evenodd" clip-rule="evenodd" d="M3 2.57812H7.77096V3.57812V4.57812H4.00059L4 20.9989H20V4.57812H7.77197L7.77096 3.57812V2.57812H22V22.9989H2V2.57812H3Z" fill="#151718"/>
</svg>
