<svg width="32" height="32" viewBox="0 0 32 32" fill="none" xmlns="http://www.w3.org/2000/svg">
<g opacity="0.5">
<path d="M5.33301 25.3333H26.6663V28H5.33301V25.3333ZM26.6663 4H5.33301V17.3333C5.33301 20.28 7.71967 22.6667 10.6663 22.6667H18.6663C21.613 22.6667 23.9997 20.28 23.9997 17.3333V13.3333H26.6663C28.1463 13.3333 29.333 12.1333 29.333 10.6667V6.66667C29.333 5.18667 28.1463 4 26.6663 4ZM21.333 17.3333C21.333 18.8 20.133 20 18.6663 20H10.6663C9.19967 20 7.99967 18.8 7.99967 17.3333V6.66667H21.333V17.3333ZM26.6663 10.6667H23.9997V6.66667H26.6663V10.6667Z" fill="#151718"/>
</g>
</svg>
