<svg width="32" height="32" viewBox="0 0 32 32" fill="none" xmlns="http://www.w3.org/2000/svg">
<g opacity="0.5">
<path d="M22.653 6.66797L23.493 8.49464L25.3197 9.33464L23.493 10.1746L22.653 12.0013L21.813 10.1746L19.9863 9.33464L21.813 8.49464L22.653 6.66797ZM26.6663 18.668C28.133 18.668 29.333 17.468 29.333 16.0013C29.333 14.5346 26.6663 10.668 26.6663 10.668C26.6663 10.668 23.9997 14.5346 23.9997 16.0013C23.9997 17.468 25.1997 18.668 26.6663 18.668ZM14.6663 8.13464V5.33464H17.333C18.093 5.33464 18.7997 5.5613 19.3997 5.93464L21.3063 4.02797C20.1997 3.18797 18.8397 2.66797 17.333 2.66797C15.373 2.66797 10.0797 2.66797 9.99967 2.66797V5.33464H11.9997V8.14797C9.62634 8.6413 7.73301 10.388 6.99967 12.668H9.87967C10.5863 11.4813 11.853 10.668 13.333 10.668C15.493 10.668 17.253 12.388 17.3197 14.5346L19.9997 15.5346V14.668C19.9997 11.4413 17.7063 8.74797 14.6663 8.13464ZM29.333 25.3346V26.668L18.6663 30.0013L9.33301 27.4146V29.3346H1.33301V14.668H11.9597L20.173 17.7346C21.6663 18.2946 22.6663 19.7346 22.6663 21.3346H25.333C27.5463 21.3346 29.333 23.1213 29.333 25.3346ZM6.66634 26.668V17.3346H3.99967V26.668H6.66634ZM26.533 24.7613C26.3197 24.3213 25.853 24.0146 25.333 24.0146H18.1997C17.4797 24.0146 16.773 23.8946 16.093 23.668L12.9197 22.6146L13.7597 20.0813L16.933 21.1346C17.3463 21.268 19.9997 21.3346 19.9997 21.3346C19.9997 20.8413 19.693 20.4013 19.2397 20.228L11.4797 17.3346H9.33301V24.6413L18.6263 27.2146L26.533 24.7613Z" fill="#151718"/>
</g>
</svg>
