<svg width="32" height="32" viewBox="0 0 32 32" fill="none" xmlns="http://www.w3.org/2000/svg">
<g opacity="0.5">
<path d="M22.6663 6.66797H3.99967C2.53301 6.66797 1.33301 7.85464 1.33301 9.33464V21.3346H3.99967C3.99967 23.548 5.78634 25.3346 7.99967 25.3346C10.213 25.3346 11.9997 23.548 11.9997 21.3346H19.9997C19.9997 23.548 21.7863 25.3346 23.9997 25.3346C26.213 25.3346 27.9997 23.548 27.9997 21.3346H30.6663V14.668L22.6663 6.66797ZM19.9997 9.33464H21.333L25.333 13.3346H19.9997V9.33464ZM11.9997 9.33464H17.333V13.3346H11.9997V9.33464ZM3.99967 9.33464H9.33301V13.3346H3.99967V9.33464ZM7.99967 23.0013C7.07967 23.0013 6.33301 22.2546 6.33301 21.3346C6.33301 20.4146 7.07967 19.668 7.99967 19.668C8.91967 19.668 9.66634 20.4146 9.66634 21.3346C9.66634 22.2546 8.91967 23.0013 7.99967 23.0013ZM23.9997 23.0013C23.0797 23.0013 22.333 22.2546 22.333 21.3346C22.333 20.4146 23.0797 19.668 23.9997 19.668C24.9197 19.668 25.6663 20.4146 25.6663 21.3346C25.6663 22.2546 24.9197 23.0013 23.9997 23.0013ZM27.9997 18.668H26.9597C26.2263 17.8546 25.173 17.3346 23.9997 17.3346C22.8263 17.3346 21.773 17.8546 21.0397 18.668H10.9597C10.2263 17.8546 9.18634 17.3346 7.99967 17.3346C6.81301 17.3346 5.77301 17.8546 5.03967 18.668H3.99967V16.0013H27.9997V18.668Z" fill="#151718"/>
</g>
</svg>
