<svg width="24" height="24" viewBox="0 0 24 24" fill="none" xmlns="http://www.w3.org/2000/svg">
<path fill-rule="evenodd" clip-rule="evenodd" d="M7.80673 6.07062C7.80673 7.07237 7.05268 7.87393 5.84194 7.87393H5.81975C4.65402 7.87393 3.90039 7.07237 3.90039 6.07062C3.90039 5.04768 4.67697 4.26855 5.86483 4.26855C7.05268 4.26855 7.78419 5.04768 7.80673 6.07062ZM7.57974 9.2981V19.731H4.10742V9.2981H7.57974ZM20.1004 19.7313L20.1005 13.7494C20.1005 10.5449 18.3875 9.05347 16.1026 9.05347C14.259 9.05347 13.4336 10.0661 12.9727 10.7765V9.29873H9.5C9.54577 10.2777 9.5 19.7316 9.5 19.7316H12.9727V13.905C12.9727 13.5932 12.9953 13.2822 13.0871 13.0589C13.338 12.436 13.9094 11.7911 14.8687 11.7911C16.1257 11.7911 16.6282 12.7478 16.6282 14.1497V19.7313H20.1004Z" fill="#151718"/>
</svg>
