<svg width="32" height="32" viewBox="0 0 32 32" fill="none" xmlns="http://www.w3.org/2000/svg">
<g opacity="0.5">
<path d="M13.3337 10.6669L9.00033 15.0002C9.41366 15.1602 9.74699 15.3602 10.027 15.5202C10.5203 15.8268 10.8137 16.0002 11.5603 16.0002C12.307 16.0002 12.6003 15.8268 13.0937 15.5202C13.707 15.1602 14.5337 14.6668 16.0137 14.6668C17.4937 14.6668 18.3203 15.1602 18.9203 15.5202C19.4137 15.8135 19.7203 16.0002 20.4537 16.0002C21.187 16.0002 21.4937 15.8268 21.987 15.5202C22.147 15.4268 22.3337 15.3202 22.5337 15.2135L13.9737 6.66688C11.907 4.60021 10.0003 3.98688 6.66699 4.00021V7.33355C9.09366 7.32021 10.5203 7.85355 12.0003 9.33355L13.3337 10.6669ZM29.3337 22.0002H29.307H29.3337ZM7.13366 20.6668C7.86699 20.6668 8.17366 20.8535 8.66699 21.1468C9.26699 21.5068 10.0937 22.0002 11.5737 22.0002C13.0537 22.0002 13.8803 21.5068 14.4803 21.1468C14.9737 20.8402 15.267 20.6668 16.0137 20.6668C16.747 20.6668 17.0537 20.8535 17.547 21.1468C18.147 21.5068 18.9737 22.0002 20.4537 22.0002C21.9337 22.0002 22.7603 21.5068 23.3603 21.1468C23.8537 20.8402 24.147 20.6668 24.8937 20.6668C25.627 20.6668 25.9337 20.8535 26.427 21.1468C27.027 21.5068 27.8403 21.9868 29.307 22.0002V19.3335C28.5737 19.3335 28.267 19.1468 27.7737 18.8535C27.1737 18.4935 26.347 18.0002 24.867 18.0002C23.387 18.0002 22.5603 18.4935 21.9603 18.8535C21.467 19.1602 21.1603 19.3335 20.427 19.3335C19.6937 19.3335 19.387 19.1468 18.8937 18.8535C18.2937 18.4935 17.467 18.0002 15.987 18.0002C14.507 18.0002 13.6803 18.4935 13.0803 18.8535C12.587 19.1602 12.2937 19.3335 11.547 19.3335C10.8137 19.3335 10.507 19.1468 10.0137 18.8535C9.41366 18.4935 8.58699 18.0002 7.10699 18.0002C5.62699 18.0002 4.80033 18.4935 4.20033 18.8535C3.70699 19.1602 3.41366 19.3335 2.66699 19.3335V22.0002C4.14699 22.0002 4.97366 21.5068 5.60033 21.1468C6.09366 20.8402 6.40033 20.6668 7.13366 20.6668ZM24.8937 24.0002C23.4137 24.0002 22.587 24.4935 21.987 24.8535C21.4937 25.1602 21.187 25.3335 20.4537 25.3335C19.7203 25.3335 19.4137 25.1468 18.9203 24.8535C18.3203 24.4935 17.4937 24.0002 16.0137 24.0002C14.5337 24.0002 13.707 24.4935 13.0937 24.8535C12.6003 25.1602 12.307 25.3335 11.5603 25.3335C10.8137 25.3335 10.5203 25.1602 10.027 24.8535C9.42699 24.4935 8.60033 24.0002 7.12033 24.0002C5.64033 24.0002 4.81366 24.4935 4.20033 24.8535C3.70699 25.1602 3.41366 25.3335 2.66699 25.3335V28.0002C4.14699 28.0002 4.97366 27.5068 5.58699 27.1468C6.08033 26.8402 6.38699 26.6668 7.12033 26.6668C7.85366 26.6668 8.16033 26.8402 8.65366 27.1468C9.25366 27.5068 10.0803 28.0002 11.5603 28.0002C13.0403 28.0002 13.867 27.5068 14.4803 27.1468C14.9737 26.8402 15.267 26.6668 16.0137 26.6668C16.747 26.6668 17.0537 26.8535 17.547 27.1468C18.147 27.5068 18.9737 28.0002 20.4537 28.0002C21.9337 28.0002 22.747 27.5068 23.3603 27.1468C23.8537 26.8402 24.147 26.6668 24.8937 26.6668C25.627 26.6668 25.9337 26.8535 26.427 27.1468C27.027 27.5068 27.8537 28.0002 29.3337 28.0002V25.3335C28.587 25.3335 28.2937 25.1602 27.8003 24.8535C27.2003 24.4935 26.3737 24.0002 24.8937 24.0002Z" fill="#151718"/>
<path d="M22.0003 10.6668C23.8413 10.6668 25.3337 9.17444 25.3337 7.33349C25.3337 5.49255 23.8413 4.00016 22.0003 4.00016C20.1594 4.00016 18.667 5.49255 18.667 7.33349C18.667 9.17444 20.1594 10.6668 22.0003 10.6668Z" fill="#151718"/>
</g>
</svg>
