<svg width="24" height="24" viewBox="0 0 24 24" fill="none" xmlns="http://www.w3.org/2000/svg">
<path d="M23.0364 6.46408C22.7771 5.50017 22.0171 4.74033 21.0533 4.48077C19.2926 3.99902 12.2497 3.99902 12.2497 3.99902C12.2497 3.99902 5.20708 3.99902 3.44638 4.46251C2.50114 4.72179 1.72263 5.50031 1.46335 6.46408C1 8.22464 1 11.8758 1 11.8758C1 11.8758 1 15.5454 1.46335 17.2875C1.7229 18.2513 2.4826 19.0112 3.44652 19.2707C5.22562 19.7526 12.25 19.7526 12.25 19.7526C12.25 19.7526 19.2926 19.7526 21.0533 19.2891C22.0173 19.0297 22.7771 18.2698 23.0367 17.3061C23.4999 15.5454 23.4999 11.8943 23.4999 11.8943C23.4999 11.8943 23.5184 8.22464 23.0364 6.46408ZM10.0074 15.2489V8.50273L15.864 11.8758L10.0074 15.2489Z" fill="#151718"/>
</svg>
